<svg width="22" height="19" viewBox="0 0 22 19" fill="none" xmlns="http://www.w3.org/2000/svg">
<path d="M10.8897 8.93994C11.6496 8.93994 12.2854 9.43049 12.9522 10.2437C13.2806 10.644 13.5899 11.0878 13.9161 11.5444C14.2345 11.9902 14.5694 12.4475 14.9298 12.8354V12.8364C15.2272 13.1633 15.5697 13.4722 15.8995 13.7651C16.2361 14.064 16.5595 14.3452 16.8507 14.6382C17.4386 15.2297 17.8033 15.7801 17.8302 16.4009C17.8446 16.7405 17.7202 17.133 17.4806 17.4946C17.2415 17.8554 16.9146 18.1441 16.5831 18.2944L16.5821 18.2954C15.8792 18.6174 15.0738 18.4645 14.0685 18.1411C13.5981 17.9898 13.0501 17.7902 12.5382 17.6421C12.0124 17.49 11.455 17.3696 10.8897 17.3696C10.3218 17.3697 9.76163 17.496 9.23447 17.6538C8.72324 17.8068 8.16994 18.0141 7.70224 18.1685C6.69486 18.5009 5.9044 18.6473 5.22568 18.3042V18.3032L5.21982 18.3013L5.07626 18.2212C4.74529 18.0181 4.44838 17.6912 4.23642 17.2983C3.9941 16.8491 3.88638 16.3578 3.93661 15.9399C4.00311 15.3895 4.36938 14.923 4.95224 14.4175C5.2415 14.1666 5.55385 13.9311 5.88388 13.6714C6.20549 13.4183 6.5384 13.1462 6.82822 12.8481L6.82724 12.8472C7.20812 12.4653 7.5547 12.0105 7.87802 11.564C8.2106 11.1046 8.51617 10.661 8.84384 10.2554C9.50705 9.43431 10.1293 8.94005 10.8897 8.93994ZM2.19931 6.05713C2.58268 5.89342 3.08758 5.94113 3.629 6.24561C4.10031 6.51072 4.56103 6.95364 4.91318 7.52783L5.05673 7.78174C5.39398 8.48985 5.49167 9.19041 5.40048 9.74268C5.30899 10.2961 5.04043 10.6606 4.67099 10.8208C4.29255 10.9849 3.79413 10.9406 3.25986 10.6372C2.72919 10.3358 2.21176 9.80117 1.85654 9.09521C1.50203 8.39068 1.40061 7.68622 1.49033 7.13037C1.58021 6.57429 1.84806 6.2118 2.20029 6.05811L2.19931 6.05713ZM18.3712 6.24561C18.9123 5.9413 19.4166 5.89376 19.7999 6.05713V6.05811C20.1521 6.21181 20.42 6.57427 20.5099 7.13037C20.5996 7.6862 20.4981 8.39071 20.1436 9.09521C19.7884 9.80117 19.271 10.3358 18.7403 10.6372C18.206 10.9407 17.7076 10.9849 17.3292 10.8208C16.9597 10.6606 16.6912 10.2961 16.5997 9.74268C16.5085 9.19039 16.6062 8.48988 16.9435 7.78174C17.3082 7.08381 17.8326 6.54852 18.3712 6.24561ZM7.42685 1.49365C7.80335 1.44175 8.25775 1.61506 8.69247 2.06592C9.12397 2.51347 9.48615 3.19135 9.64951 3.99854L9.65048 3.99951C9.81414 4.8042 9.74109 5.53835 9.5206 6.06982C9.29979 6.6019 8.96006 6.88026 8.59482 6.93604H8.59384C8.22393 6.99287 7.76833 6.8247 7.32822 6.37158C6.89408 5.92453 6.52731 5.24545 6.35947 4.43799L6.30771 4.14014C6.21276 3.45555 6.29376 2.83638 6.48935 2.37061C6.71298 1.83817 7.05822 1.55407 7.42685 1.49365ZM14.4239 1.49365C14.7977 1.55443 15.1427 1.83913 15.3673 2.37158C15.5915 2.90306 15.6678 3.63396 15.5108 4.43506C15.338 5.24459 14.9705 5.9245 14.5362 6.37158C14.0969 6.82384 13.6417 6.99322 13.2657 6.93604L13.2647 6.93506C12.8934 6.87884 12.5522 6.59995 12.3321 6.06982C12.1121 5.53951 12.041 4.80652 12.2091 4.00244L12.2101 3.99854C12.3734 3.19127 12.7364 2.5127 13.1671 2.06494C13.6018 1.61315 14.0538 1.44167 14.4239 1.49365Z" stroke="white"/>
</svg>
