<svg width="18" height="18" viewBox="0 0 18 18" fill="none" xmlns="http://www.w3.org/2000/svg">
<path fill-rule="evenodd" clip-rule="evenodd" d="M12.54 0C12.3024 0.296251 12.1232 0.634914 12.012 0.998H11.38C10.5844 0.998 9.82129 1.31407 9.25868 1.87668C8.69607 2.43929 8.38 3.20235 8.38 3.998C8.38 4.79365 8.69607 5.55671 9.25868 6.11932C9.82129 6.68193 10.5844 6.998 11.38 6.998H12.01C12.15 7.454 12.4 7.884 12.76 8.244C13.0528 8.53647 13.403 8.76519 13.7885 8.91577C14.174 9.06636 14.5865 9.13555 15 9.119V16H17C17.2652 16 17.5196 16.1054 17.7071 16.2929C17.8946 16.4804 18 16.7348 18 17C18 17.2652 17.8946 17.5196 17.7071 17.7071C17.5196 17.8946 17.2652 18 17 18H1C0.734784 18 0.48043 17.8946 0.292893 17.7071C0.105357 17.5196 0 17.2652 0 17C0 16.7348 0.105357 16.4804 0.292893 16.2929C0.48043 16.1054 0.734784 16 1 16V2C1 1.46957 1.21071 0.960859 1.58579 0.585786C1.96086 0.210714 2.46957 0 3 0H12.54ZM10.5 10C10.1022 10 9.72064 10.158 9.43934 10.4393C9.15804 10.7206 9 11.1022 9 11.5C9 11.8978 9.15804 12.2794 9.43934 12.5607C9.72064 12.842 10.1022 13 10.5 13C10.8978 13 11.2794 12.842 11.5607 12.5607C11.842 12.2794 12 11.8978 12 11.5C12 11.1022 11.842 10.7206 11.5607 10.4393C11.2794 10.158 10.8978 10 10.5 10ZM15.587 1.172L17.707 3.292C17.8942 3.47949 17.9993 3.73358 17.9993 3.9985C17.9993 4.26342 17.8942 4.51751 17.707 4.705L15.587 6.828C15.4948 6.92357 15.3845 6.99983 15.2626 7.05233C15.1406 7.10482 15.0094 7.1325 14.8766 7.13374C14.7438 7.13499 14.6121 7.10978 14.4892 7.05959C14.3663 7.00939 14.2546 6.93522 14.1606 6.84139C14.0667 6.74757 13.9923 6.63597 13.942 6.51311C13.8916 6.39025 13.8662 6.25859 13.8673 6.12581C13.8683 5.99303 13.8958 5.86179 13.9481 5.73975C14.0005 5.61771 14.0766 5.50731 14.172 5.415L14.588 4.998H11.38C11.1148 4.998 10.8604 4.89264 10.6729 4.70511C10.4854 4.51757 10.38 4.26322 10.38 3.998C10.38 3.73278 10.4854 3.47843 10.6729 3.29089C10.8604 3.10336 11.1148 2.998 11.38 2.998H14.585L14.173 2.586C13.9908 2.3974 13.89 2.1448 13.8923 1.8826C13.8946 1.6204 13.9998 1.36959 14.1852 1.18418C14.3706 0.998773 14.6214 0.893604 14.8836 0.891326C15.1458 0.889048 15.3984 0.989842 15.587 1.172Z" fill="#E6E6E6"/>
</svg>
