<svg width="22" height="22" viewBox="0 0 22 22" fill="none" xmlns="http://www.w3.org/2000/svg">
<path d="M10.9998 1.46924C11.0325 1.46924 11.0653 1.47528 11.0955 1.48779C11.1256 1.5003 11.1526 1.51941 11.1756 1.54248H11.1766L20.8299 11.189C21.2206 11.5797 21.2209 12.2133 20.8318 12.604L20.8309 12.605C20.6447 12.7927 20.3905 12.8979 20.1238 12.8979H18.6072V20.2808C18.6072 20.4194 18.4958 20.5307 18.3572 20.5308H12.6248V15.2808H8.9998V20.5308H3.64336C3.50465 20.5308 3.39336 20.4195 3.39336 20.2808V12.8979H1.87578C1.32471 12.8979 0.876001 12.449 0.875778 11.8979C0.875778 11.6332 0.980917 11.377 1.16875 11.189L1.16972 11.1899L10.824 1.54248C10.8471 1.51937 10.8749 1.5003 10.9051 1.48779C10.9351 1.4754 10.9673 1.46926 10.9998 1.46924Z" stroke="white"/>
</svg>
