<svg width="20" height="15" viewBox="0 0 20 15" fill="none" xmlns="http://www.w3.org/2000/svg">
<path d="M7 9.5C10.4043 9.5 11.9968 10.4694 12.749 11.3291C13.1307 11.7653 13.3176 12.1974 13.4102 12.5146C13.4565 12.6736 13.4794 12.8043 13.4902 12.8906C13.4956 12.9335 13.4979 12.9654 13.499 12.9844C13.4996 12.9938 13.4999 13.0002 13.5 13.0029V14.5H0.5V13.0029C0.500076 13.0002 0.500429 12.9938 0.500977 12.9844C0.502081 12.9654 0.504419 12.9335 0.509766 12.8906C0.520553 12.8043 0.543478 12.6736 0.589844 12.5146C0.682436 12.1974 0.869341 11.7653 1.25098 11.3291C2.0032 10.4694 3.59572 9.5 7 9.5ZM6.41504 0.557617C6.99689 0.441944 7.60036 0.501493 8.14844 0.728516C8.69633 0.955546 9.16458 1.33994 9.49414 1.83301C9.82378 2.32635 9.99999 2.90667 10 3.5C10 4.29564 9.68369 5.05849 9.12109 5.62109C8.55848 6.1837 7.79565 6.5 7 6.5C6.40666 6.5 5.82636 6.32378 5.33301 5.99414C4.83993 5.66458 4.45555 5.19634 4.22852 4.64844C4.00149 4.10034 3.94193 3.4969 4.05762 2.91504C4.17337 2.3331 4.45935 1.79846 4.87891 1.37891C5.29846 0.959359 5.8331 0.673371 6.41504 0.557617ZM12.998 0.5H13C13.7956 0.5 14.5585 0.816309 15.1211 1.37891C15.6837 1.94151 16 2.70436 16 3.5C16 4.29564 15.6837 5.05849 15.1211 5.62109C14.5585 6.1837 13.7956 6.5 13 6.5H12.998C12.5737 6.50197 12.1566 6.40895 11.7744 6.2334C12.2498 5.40381 12.5039 4.46251 12.5039 3.5C12.5039 2.5372 12.2501 1.5954 11.7744 0.765625C12.1564 0.590191 12.5738 0.498027 12.998 0.5ZM16.5 12.9805C16.4669 12.1309 16.2476 11.2989 15.8584 10.543C15.6977 10.2309 15.5078 9.93577 15.2949 9.65918C17.2876 10.0068 18.3147 10.7754 18.8506 11.4502C19.1803 11.8653 19.3428 12.2663 19.4229 12.5586C19.4629 12.7049 19.482 12.8241 19.4912 12.9023C19.4958 12.9413 19.4981 12.9704 19.499 12.9873C19.4995 12.9954 19.4999 13.0006 19.5 13.0029V14.5H16.5V12.9805Z" stroke="white"/>
</svg>
