<svg width="25" height="24" viewBox="0 0 25 24" fill="none" xmlns="http://www.w3.org/2000/svg">
<path d="M8.85 3.00003C10.03 2.83003 11.28 4.12003 11.64 5.90003C12 7.67003 11.35 9.25003 10.17 9.43003C9 9.61003 7.74 8.32003 7.37 6.54003C7 4.77003 7.67 3.19003 8.85 3.00003ZM16 3.00003C17.19 3.19003 17.85 4.77003 17.5 6.54003C17.12 8.32003 15.87 9.61003 14.69 9.43003C13.5 9.25003 12.85 7.67003 13.22 5.90003C13.58 4.12003 14.83 2.83003 16 3.00003ZM3.5 7.60003C4.64 7.11003 6.19 8.00003 7 9.55003C7.76 11.13 7.5 12.79 6.37 13.28C5.24 13.77 3.7 12.89 2.91 11.32C2.12 9.75003 2.4 8.08003 3.5 7.60003ZM21.5 7.60003C22.6 8.08003 22.88 9.75003 22.09 11.32C21.3 12.89 19.76 13.77 18.63 13.28C17.5 12.79 17.24 11.13 18 9.55003C18.81 8.00003 20.36 7.11003 21.5 7.60003ZM19.83 18.38C19.87 19.32 19.15 20.36 18.29 20.75C16.5 21.57 14.38 19.87 12.39 19.87C10.4 19.87 8.26 21.64 6.5 20.75C5.5 20.26 4.81 18.96 4.94 17.88C5.12 16.39 6.91 15.59 7.97 14.5C9.38 13.09 10.38 10.44 12.39 10.44C14.39 10.44 15.45 13.05 16.8 14.5C17.91 15.72 19.76 16.75 19.83 18.38Z" fill="black"/>
</svg>
