<svg width="19" height="18" viewBox="0 0 19 18" fill="none" xmlns="http://www.w3.org/2000/svg">
<path fill-rule="evenodd" clip-rule="evenodd" d="M13.04 0C12.8024 0.296251 12.6232 0.634914 12.512 0.998H11.88C11.0844 0.998 10.3213 1.31407 9.75868 1.87668C9.19607 2.43929 8.88 3.20235 8.88 3.998C8.88 4.79365 9.19607 5.55671 9.75868 6.11932C10.3213 6.68193 11.0844 6.998 11.88 6.998H12.51C12.65 7.454 12.9 7.884 13.26 8.244C13.5528 8.53647 13.903 8.76519 14.2885 8.91577C14.674 9.06636 15.0865 9.13555 15.5 9.119V16H17.5C17.7652 16 18.0196 16.1054 18.2071 16.2929C18.3946 16.4804 18.5 16.7348 18.5 17C18.5 17.2652 18.3946 17.5196 18.2071 17.7071C18.0196 17.8946 17.7652 18 17.5 18H1.5C1.23478 18 0.98043 17.8946 0.792893 17.7071C0.605357 17.5196 0.5 17.2652 0.5 17C0.5 16.7348 0.605357 16.4804 0.792893 16.2929C0.98043 16.1054 1.23478 16 1.5 16V2C1.5 1.46957 1.71071 0.960859 2.08579 0.585786C2.46086 0.210714 2.96957 0 3.5 0H13.04ZM11 10C10.6022 10 10.2206 10.158 9.93934 10.4393C9.65804 10.7206 9.5 11.1022 9.5 11.5C9.5 11.8978 9.65804 12.2794 9.93934 12.5607C10.2206 12.842 10.6022 13 11 13C11.3978 13 11.7794 12.842 12.0607 12.5607C12.342 12.2794 12.5 11.8978 12.5 11.5C12.5 11.1022 12.342 10.7206 12.0607 10.4393C11.7794 10.158 11.3978 10 11 10ZM16.087 1.172L18.207 3.292C18.3942 3.47949 18.4993 3.73358 18.4993 3.9985C18.4993 4.26342 18.3942 4.51751 18.207 4.705L16.087 6.828C15.9948 6.92357 15.8845 6.99983 15.7626 7.05233C15.6406 7.10482 15.5094 7.1325 15.3766 7.13374C15.2438 7.13499 15.1121 7.10978 14.9892 7.05959C14.8663 7.00939 14.7546 6.93522 14.6606 6.84139C14.5667 6.74757 14.4923 6.63597 14.442 6.51311C14.3916 6.39025 14.3662 6.25859 14.3673 6.12581C14.3683 5.99303 14.3958 5.86179 14.4481 5.73975C14.5005 5.61771 14.5766 5.50731 14.672 5.415L15.088 4.998H11.88C11.6148 4.998 11.3604 4.89264 11.1729 4.70511C10.9854 4.51757 10.88 4.26322 10.88 3.998C10.88 3.73278 10.9854 3.47843 11.1729 3.29089C11.3604 3.10336 11.6148 2.998 11.88 2.998H15.085L14.673 2.586C14.4908 2.3974 14.39 2.1448 14.3923 1.8826C14.3946 1.6204 14.4998 1.36959 14.6852 1.18418C14.8706 0.998773 15.1214 0.893604 15.3836 0.891326C15.6458 0.889048 15.8984 0.989842 16.087 1.172Z" fill="black"/>
</svg>
