<svg width="17" height="20" viewBox="0 0 17 20" fill="none" xmlns="http://www.w3.org/2000/svg">
<path d="M16.87 19.25C16.87 19.4489 16.791 19.6397 16.6503 19.7803C16.5097 19.921 16.3189 20 16.12 20H0.880001C0.681089 20 0.490323 19.921 0.349671 19.7803C0.209019 19.6397 0.130001 19.4489 0.130001 19.25C0.130001 15.15 4.63 11.97 8.5 11.97C12.37 11.97 16.87 15.15 16.87 19.25ZM13.6 5.11C13.598 6.11826 13.2972 7.1033 12.7356 7.94068C12.174 8.77805 11.3768 9.43018 10.4448 9.81465C9.51269 10.1991 8.48757 10.2987 7.49892 10.1008C6.51028 9.90287 5.60248 9.41636 4.89024 8.70271C4.17799 7.98907 3.69325 7.08032 3.49728 6.09129C3.3013 5.10226 3.40288 4.07733 3.78918 3.14601C4.17548 2.21469 4.82916 1.41877 5.66763 0.858815C6.50611 0.298861 7.49174 1.93822e-06 8.5 0C9.85352 0.00264878 11.1507 0.542191 12.1069 1.50022C13.063 2.45824 13.6 3.75647 13.6 5.11Z" fill="black"/>
</svg>
