<?xml version="1.0" encoding="UTF-8"?>
<svg id="Capa_2" data-name="Capa 2" xmlns="http://www.w3.org/2000/svg" viewBox="0 0 497.09 381.39">
  <defs>
    <style>
      .cls-1 {
        fill: #221f1f;
      }

      .cls-2 {
        fill: #fce2ac;
      }

      .cls-3 {
        fill: #731b1e;
      }

      .cls-4 {
        fill: #f7e2ad;
      }

      .cls-5 {
        fill: #e3aa5f;
      }

      .cls-6 {
        fill: #352215;
      }

      .cls-7 {
        fill: #741a1d;
      }

      .cls-8 {
        fill: #881b18;
      }

      .cls-9 {
        fill: #ed7053;
      }

      .cls-10 {
        fill: #2d1c1a;
      }

      .cls-11 {
        fill: #e62d2d;
      }

      .cls-12 {
        fill: #1baaa5;
      }

      .cls-13 {
        fill: #6d441e;
      }

      .cls-14 {
        fill: #b72d30;
      }

      .cls-15 {
        fill: #8c5e36;
      }

      .cls-16 {
        fill: #fff;
      }

      .cls-17 {
        fill: #553219;
      }

      .cls-18 {
        fill: #3f1c11;
      }

      .cls-19 {
        fill: #dcab69;
      }

      .cls-20 {
        fill: #4f4e4e;
      }

      .cls-21 {
        fill: #f9e3a8;
      }

      .cls-22 {
        fill: #2c201b;
      }

      .cls-23 {
        fill: #b7201f;
      }

      .cls-24 {
        fill: #f6e3b4;
      }

      .cls-25 {
        fill: #e3aa60;
      }

      .cls-26 {
        fill: #791d23;
      }

      .cls-27 {
        fill: #5a361f;
      }

      .cls-28 {
        fill: #a0a0a0;
      }

      .cls-29 {
        fill: #ec7057;
      }

      .cls-30 {
        fill: #fefdfe;
      }

      .cls-31 {
        fill: #919191;
      }

      .cls-32 {
        fill: #59361f;
      }

      .cls-33 {
        fill: #b72a31;
      }

      .cls-34 {
        fill: #be2d32;
      }

      .cls-35 {
        fill: #431c10;
      }

      .cls-36 {
        fill: #7c797a;
      }

      .cls-37 {
        fill: #fbe2a8;
      }

      .cls-38 {
        fill: #3b2a21;
      }

      .cls-39 {
        fill: #df272a;
      }

      .cls-40 {
        fill: #f9f8f8;
      }

      .cls-41 {
        fill: #f8e1af;
      }

      .cls-42 {
        fill: #e5262a;
      }

      .cls-43 {
        fill: #3c1717;
      }

      .cls-44 {
        fill: #c63136;
      }

      .cls-45 {
        fill: #222022;
      }

      .cls-46 {
        fill: #392213;
      }

      .cls-47 {
        fill: #734720;
      }

      .cls-48 {
        fill: #222021;
      }
    </style>
  </defs>
  <g id="Capa_1-2" data-name="Capa 1">
    <g>
      <path class="cls-16" d="M356.55,22.88c-24.69-8.56-51.44-12.83-79.02-12.83-29.87,0-60.7,5.01-90.95,15.01-58.18,19.24-107.1,54.6-137.76,99.58-30.38,44.56-39.14,93.22-24.66,137.01,30.06,90.9,151.83,132.68,271.45,93.13,58.18-19.24,107.1-54.6,137.76-99.58,30.38-44.56,39.14-93.22,24.66-137.01-14.48-43.79-50.52-77.64-101.48-95.31Z"/>
      <path class="cls-11" d="M215.71,355.59c-.53.36-1.01.48-1.47.84l-68.29-245.2,4.05-.5-17.4-70.98-41.56,29.59-2.13,11.47c-1.45,1.38-2.65,2.44-4.07,3.95-1.1-.01-1.56.76-2.26,1.39-12.36,11.37-23.61,25.25-33.13,39.04-8.61,12.48-15.71,25.75-21.06,39.87-.89,2.34-1.61,5.9-1.96,8.43-.55,1.47-1.26,2.97-1.68,4.49-4.21,15.02-6.02,34.71-5.05,50.26.39,6.29,1.99,12.64,3.07,18.83.59.88,1.21.5,1.99.3,2.69-.69,6.4-4.19,9.04-5.59,3.51-1.86,10.69-5.46,14.29-6.49,2.88-.83,5.8-.99,8.72-.78l.7,19.3c-.15-.09-.22-.14-.18-.14-.04.09-6.37,8.41-6.5,8.58-2.85,3.04.3.09-2.85,3.04-.18.19-5.06.17-5.24.37-2.04.86,1.08,4.67-.63,6.06-2.1,1.71-9.57,6.32-2.1,16.16,1.09,1.44,1.53,4.61,2.51,6.26,1.96,3.28,4.63,6.57,6.94,9.62.54.62.92.8,1.12.56,1.98,2.93,4.23,5.74,6.74,8.42.18.2.38.37.56.56.7.21,1.31.6,1.88,1.08.95,1.05,1.84,2.05,2.8,3.09.33.38.65.75,1,1.08.1.1.21.19.31.29.24.25.49.5.75.76,5.38,5.39,18.43,16.48,26.26,20.05,1.01.58,2.05,1.05,3.13,1.29.59.27,1.19.5,1.69.42.21-.03.41-.13.61-.27.48-.04.96-.12,1.45-.28.2-.14.36-.39.56-.56,1.59-.62,2.51-1.29,2.78-1.99,2.16-1.2,4.14-3.18,5.95-4.61.74-.58,2-.7,2.55-1.38,1.06-1.29,3.08-8.05,4.44-12.71.37-.97.75-1.94,1.13-2.9.18-.58.36-1.18.53-1.76l93.7,48.52c-.2.33-.36.61-.46.8-.45.86-1.76,4.4-1.61,5.03.48,1.96,10.31.42,12.3.33-.87-5.04-3.27-10.16-3.93-14.04ZM40.64,155.15c.29.29.62.21.96-.19.75,0,1.5,0,2.25,0-1.27-.02-2.43.18-3.48.62.23-.16.32-.3.28-.43ZM38.23,184.17l-6.15-13.23c-.46-7.39-.81-11.73,7.15-14.13,3.42-1.03,9.76-2.2,14.63-2.95l2.05,56.11c-5.96-8.47-11.7-17.48-17.68-25.8Z"/>
      <path class="cls-39" d="M454.4,108.47c-3.28-7.55-7.4-15.08-12.07-22.22h.47s-6.77-25.32-83.77-68.69c1.1-.84,2.28-1.94.62-2.76-3.78-1.87-14.12-4.3-18.69-5.46-6.17-1.56-12.84-3.17-19.1-4.21-.18-.03-.38.03-.56,0-8.36-1.35-16.87-1.8-25.27-2.81.14,1.09.47,2.07.8,3.05l-17.27-3.05,18.51,86.87,118.19-2.41c2.19,4.71,5.03,9.28,8.06,13.57l20.53,24.97c.1.09.46-.09.56,0,2.39,4.4,6.76,7.69,10.67,10.67.19.15.36.79.82,1.12,1.53,1.11,3.84,1.53,5.08,3.36.82-.53.77-1.08.87-1.92.82-7.11-5.46-23.18-8.45-30.08Z"/>
      <path class="cls-1" d="M205,379.73c-28.7,0-56.55-4.45-82.3-13.38-53.97-18.71-92.21-54.8-107.69-101.62C-.48,217.92,8.72,166.15,40.89,118.95,72.78,72.17,123.53,35.43,183.78,15.51c60.25-19.92,122.89-20.68,176.39-2.13,53.97,18.71,92.21,54.8,107.69,101.62s6.29,98.59-25.89,145.79c-31.89,46.78-82.64,83.52-142.89,103.44-31.25,10.33-63.16,15.51-94.09,15.51ZM277.87,9.99c-29.87,0-60.7,5.01-90.95,15.01-58.18,19.24-107.1,54.6-137.76,99.58-30.38,44.56-39.14,93.22-24.66,137.01,30.06,90.9,151.83,132.68,271.45,93.13,58.18-19.24,107.1-54.6,137.76-99.58,30.38-44.56,39.14-93.22,24.66-137.01-14.48-43.79-50.52-77.64-101.48-95.31-24.69-8.56-51.44-12.83-79.02-12.83Z"/>
      <path class="cls-5" d="M224.65,196.69c-1.22-1.04-17.68,5.59-20.18,6.69-.94.33-1.37-.56-.56-1.12,2.77-1.4,5.5-3.03,8.31-4.33,2.84-1.31,7.82-2.44,10.23-4.1.95-5.81-.74-8.2-6.35-6,0,0,0,0,.01,0l.12-.69c3.16-1.79,3.92-3.86,2.29-6.22-1.66-2.47-.86-2.41-3.93-2.81-2.41,1.52-4.72,3.21-6.95,5.05,2.78-2.64,4.96-4.62,5.47-4.97l1.47-2.89c-.06-.95-.69-1.72-1.22-2.45l-12.81-15.25c.41-2.84,4.06,3.59,5.05,2.53-1.41-16.25-3.62-32.05-8.14-47.74-2.46-8.54-6.1-20.18-11.79-26.97-6.81-8.13-9.21-6.64-16.58-.28-6.77,5.84-12.4,13.01-17.96,19.95-2.31,4.48-5.08,8.7-7.22,13.28-.95,2.02-4.55,9.31-3.75,10.87.57,1.11,3.71,1.46,2.01,3.11-9.92.57-18.5,2.06-27.54,5.88-6.97,2.94-17.08,8.46-21.81,14.39-.74.93-3.36,5.73-3.76,5.82-1.89.46-.93-3.68-2.31-3.86-11.91-.41-23.45-.12-35.21,1.7-3.29.51-13.21,1.89-15.27,3.83-3.09,2.92-1.03,11.37.95,14.79,9.8,13.43,18.27,28.11,28.31,41.34,1.02,1.34,7.77,9.87,8.34,10.19,1.5.84,2.94.24,3.6.62.49.28,2.96,9.08,3.6,10.72.8,2.06,4.01,10.42,5.06,11.51.45.47,1.3.65,1.87.2,3.83-3.23,8.05-5.99,12.03-9.04l1.12.84c-.75.49-1.15,1.39-1.68,1.97-1.75,1.89-10.91,8.11-11.15,9.35-.07.37,2.67,7.41,4.41,5.25l1.31-.26s-.03.05-.05.08c-.19.75-.38,3.51.42,4.11,5.27,6.3,5.15-2.38,7.3-4.49.38.02.71.04.99.09.39.29.14,1,0,1.74-1.36,6.95-5.53,7.22,3.63,10.12,12.12,3.83,25.62,4.16,38.06,1.54,25.83-5.44,48.18-17.9,67.66-35.4,10.78-9.69,16.26-24.31,12.61-38.69ZM76.4,213.57c-2.3-6.5-9.87-12.64-15.48-17.12l-1.35.2c.52-1.46.27-1.82-1.12-1.12v-1.75c-3.09-1.97-15.09-23.8-13.47-26.66.25-.43,7.21-2.52,8.47-2.72,8.84-1.44,20.39-2.14,27.98,2.87-3.38,14.83-6.08,30.78-5.03,46.3ZM97.28,252.59c1.21-1.7,2.5-3.31,3.86-4.83-1.36,1.53-2.64,3.14-3.86,4.83ZM191.43,200.58l-.04-.03c-.14-.25.43-1.1,1.46-2.33-.76.99-1.3,1.83-1.41,2.36ZM198.43,200.02c-.2.23-.2.65-.13,1.12-.02-.48-.23-.78-.56-.95l.33.11c.13-.11.27-.21.4-.32-.01.01-.03.03-.04.04Z"/>
      <path class="cls-5" d="M200.39,258.86c-.29-1.34-1.81-6.99-2.38-7.73-.67-.88-1-.53-1.8-.14-2.42,1.18-6.23,4.55-8.97,6.2-10.34,6.25-27.36,14.83-38.91,17.82-5.8,1.5-14.48-.96-19.67-.3-1.24.7-2.16,1.43-2.76,2.2-1.36,16.06-6.24,31.32-11.52,46.77-2.9,10.65-4.65,22.62-2.57,33.6,1.4,3.16,2.21,6.93,5.05,8.99l.58-1.2c-2.6-2.99-2.76-5.14-.47-6.45l-.11-.77,1.13.76c3.82-1.07,8.32-1.55,12.03.08l1.45-.28c-3.85-8.14-6.13-16.47-7.86-25.27l.5-.67c-.46-1.03-.72-1.96-.81-2.81.2,1.33.8,2.64,1.6,3.18l4.33,13.78c2.9,6.86,6.49,14.22,11,20.17,3.13,4.14,7.73,9.44,12.59,11.28l.44-1.19c-1.4-1.68-.61-2.89,2.38-3.64v-.79c1.17.71,2.48.34,3.92-1.12-.27-.48-1.39-2.39-.84-2.81,2.02-.14,2.78,2.5,3.64,3.09.46.31,1.02-.3,1.13-.28.33-2.6-1.71-4.49-2.65-6.62-5.99-13.72-7.05-28.77-9.71-43.36.52-.63.53-1.4,1.68-1.12l.11,2.43.45.38,1.13-.79c2.22-6.86,13.62-8.65,17.37-1.62l1.15-.39c.13-2.32,1.04-1.11,1.68-1.12,1.64,3.21,2.57,7.33,2.83,10.93,1.07,14.53-1.9,29.75-1.72,44.4.01.95-.36,2.5.57,3.08.97-.64,1.37-1.94,1.2-3.92,3.55.81,7.12.14,10.7-2,2.14-.68,3.22-.69,3.27,1.9l1.12.65c1.27-3.08,2.92-9.24,3.87-12.7,8.85-32.1,11.02-69.9,3.84-102.56ZM151.5,369.02l-.38,1.17c-.61-1.34,1.45-1.8,2.87-1.92-.78.37-1.59.66-2.48.75ZM180.33,365.7c-.02.24.05.46.16.65-.13-.19-.2-.41-.16-.65ZM181.89,367.15c.59.04,1.14-.22,1.24-.89,1.13.94-.07,1.18-1.24.89Z"/>
      <path class="cls-1" d="M432.5,59.05c2.17,3.26,6.64,6.91,9.27,10.1,14.85,18.03,26.43,40.88,31,63.92.63,3.18,1.56,14.92,2.42,16.53.4.74,4.05,3.22,4.97,4.16,10.68,10.82,22.69,28.03,13.85,43.48-3.7,6.45-12.89,12.91-20.27,13.99-1.73.25-5.07-.53-6.16.58-.83.85-4.24,11.61-5.22,13.88-7.01,16.26-16.26,31.48-26.82,45.63-.98,1.31-6.75,7.67-6.92,8.3-.47,1.79,2.51,2.98,3.61,4.09,1.32,1.33,5.28,6.57,6.65,6.16,1.07-.32,6.69-10.69,8.76-12.61,8.52-7.95,9.53,4.38,9,10.67-.58,6.91-4.88,15.65-10.37,19.95-2.66,2.08-3.91.53-4.73,5.37-2.36,13.85-2.91,20.55-12.74,31.63-.92,1.03-2.84,1.86-3.61,3.13-2.03,3.37-.99,7.21-5.77,9.39-6.01,2.75-12.72-.23-18.9-.08-.6,5.97-5.84,12.07-11.44,14.12-8.06,2.95-26.07.14-29.3-9.09-1.47-4.19-.42-11.93-1.97-15.3-.68-1.48-2.47-.76-2.79,1-1.31,7.1,2.23,20.16-6.57,24.32-4.64,2.2-16.9,2.49-21.78,1.18-6.01-1.61-8.92-8.46-11.52-9.28-1.89-.59-5.1.58-7.61.32-1.99-.2-3.38-1.23-5.61-1.17-5.89.15-21.2,6.15-28.23,7.76-24.54,5.6-51.06,7.99-76.25,7.48-2.34-.05-4.37-.92-7-.03.25-1.01,1.24-1.75,2.97-2.21.93-5.36,2.22-11.7,7.7-13.51,2.5.15,4.7-.26,6.6-1.23,4.68-5.48,3.67-1.39.85,2.44-4.11,6.77-.58,8.74,10.58,5.9l1.06.19c.96-.72,2.02-1.23,3.18-1.53,16-1.52,31.8-3.85,47.62-6.66,1.73-.31,20.59-4.64,21.57-5.72,1.03-1.14,1.43-4.42.84-5.81-15.4-13.77-21.8-34.67-16.24-54.85,10.17-19.41,19.89-40.35,24.43-61.63-12.79-5.36-24.55-15.58-33.34-26.46-2.61-3.24-8.4-10.94-9.24-14.72-.13-.6.2-1.22.5-1.77-.51-1.61,2.22-2.05,2.81-.56,2.42-.22,3.56,4.85,3.79,7.08l.71,1.91,1.38.17c15.88,20.72,32.96,33.5,59.76,37,26.11,3.41,55.85,3.04,80.81-5.55l1.82.39c5.04.21-1.64,3.87-3.77,4.88l1.4,8.26c-.29.53-.81.9-1.42.67l-1.83-3.7c-.97.14-1.71-.41-2.21-1.63-1.45-1.17-13.53,1.52-16.01,3.19-22.1,19.77-58.17,18.42-77.52-4.42l-2.75-1.91c-4.3,18.61-11.97,37.03-20.74,54.46-6.84,14.96-5.37,31.38,3.3,45.23,4.77,7.62,8.76,10.16,17.37,9.84,15.38,3.76-.13,6.12-6.61,4.11-.74,2.36-.88,4.36,1.08,6.13l-.36,1.25c1.16,1.29,3.92,2.03,4.5.15l.75.06c.55,3.42,3.79,3.47,3.74-.21-.73-3.09,3.12-1.97,2.97,1.24,3.42-.9,3.61-4.38.57-10.44-4.92-9.94-7.41-20.22-7.47-30.85l-1.22-10.35c.35-12.09,5.35-2.24,5.43,4.28.59,12.28,3.18,23.2,8.65,34.15,2.22,4.73,2.56,9.42,2.31,14.42.03,2.25.83,4.31,3.03,5.14-.91-3.46,2.44-12.84,5.52-6.89-2.98,8.46-.91,12.11,6.21,10.97l-.7-6.18c-1.04-6.54,3.58-8.31,4.53-1.02l.81,6.77c.42.39,6.92-1.42,7.59-1.96,3.32-2.64,2.59-29.67,2.31-34.02-.79-12.27-3.43-20.09-9.05-30.58-1.11-2.21-.51-4.49,2.31-3.93,3.66.73,12.8,25.54,12.8,30.21l-1.09.67c.44.11,1.06.29,1.11.65.21,1.43.27,10.23.01,11.46l-1.12.81c1.76.07,2.37-1.2,1.82-3.81-.9-6.99-1.18-13.67,1.3-20.58l5.21-17.39c4.4-3.66,3.8,7.24,1.21,8.36l-1.12,4.49.85,1.42-2.49,9.01c-.66,9.1-.06,19.57.75,28.77,1.08,12.33,3.99,13.68,15.53,14.6.09-3.73-.64-7.47-2.19-11.23.34-2.73,1.91-2.05,3.53-.72,2.54,2.09,3.32,8.08,3.29,11.2,4.19,2.31,5.48-.44,3.88-8.26,2.48-5.65,5.77,1.52,5.7,4.91,1.86-.57,2.49-2.23,2.52-4.09-.53-4.04-.46-8.02.2-11.94,4.5-11.05,7.91-22.48,10.24-34.29,5.79-5.41,5.65,3.98,4.71,8.05-2.21,8.64-5.01,17.11-8.41,25.4-2.06,5.47-1.6,7.84,1.37,7.09-.03-4.91,4.4-4.14,4.44.36.36.64,3.79,1.42,3.97.02.02-4.01,3.82-3.33,4.46.18,1.91.11,3.65-1.96,3.92-3.81l1.01-.73c-.82,1.83-7.72,1.76-8.71,0,.01,1.78-5.02-.06-5.3-.44-1.88-2.58-.04-3.32,2.47-3.48,20.6,4.77,28.42-22.72,28.06-38.73-.27-12.39-6.19-17.77-15.23-25.31-2.39-1.7-3.57-3.57-3.55-5.61-1.39-2.87,1.15-2.24,3.04-1.07.78-1.24,2.15-2.02,4.11-2.34l3.77-5.98c3.56-3.16,6.47-6.64,8.73-10.42-.53-5.06,1.08-8.14,4.83-9.25,3.74-7.1,7.41-14.45,10.48-22,1.01-2.49,6.33-16.34,5.33-18.73-1.54-1.27-1.68-2.16-.42-2.66-.1-.43.28-.43,1.12,0l1.71-.34c10.61,7.34,26.21-.89,29.57-12.37,5.37-18.32-16.79-36.23-29.82-45.73l-.35-1.65c.06-.45.25-.91.69-1.08,2.24-.18,4.33-1.6,4.84-3.85.35-1.57-2.02-8.15-2.7-10.02-2.47-6.73-5.1-13.74-7.9-20.37-3.85-9.1-7.69-16.73-13.92-24.11-.64-3.44-2.28-5.84-4.92-7.22l-11.3-12.76c-.4-.97-1.58-1.64-3.54-2.02-.12-.42-.27-1.06,0-1.23,2.35-1.48,8.82-4.22,10.66-1.58Z"/>
      <path class="cls-1" d="M185.38,380.3c-3.12.71-3.09.59-6.18,0h6.18Z"/>
      <path class="cls-30" d="M374.65,71.96c2.5-.32,17.27,2.57,20.44,3.43,10.58,2.89,14.96,8.1,20.56,16.79,4.4,6.3,6.89,12.95,7.46,19.96-.84,23.1,1.63,47.59,11.51,68.43,1.46,3.76,2.14,7.79,2.32,11.84l-1.07,1.43-.56,7.3c1.55.63.24,4.52-1.12,5.05-.24.66-.16,1.15.59,1.52-5.35,9.7-13.71,18.33-22.96,24.38l-1.22-.63c-15.26,7.52-46.71,8.78-63.74,7.86-31.41-1.7-48.62-5.1-70.25-28.32-2.19-2.35-8.67-9.11-9.78-11.55-2.1-3.84-.91-6.57.87-10.38,5.82-12.48,16.77-25.97,29.55-31.53l29.69-7.41,1.59.33c2.43-1.19,5.07-1.71,7.94-1.55.5-.41,1.12-.74,1.77-.61,6.58,1.32,12.31,2.52,18.48,5.34.65.3,1.07.63,1.09,1.45,5.73,1.32,10.93,8.53,12.36,14.04.79.6.98.04.56-1.68-1.3-.93-2.4-2.35-3.31-4.26l-8.49-9.22-1.06.24c-5.38-2.51-10.97-4.36-16.8-5.56l-.68-.86-2.17-1.25c.67-1.21,1.2-2.46.85-3.84,5.74-18.1,12.68-35.67,20.83-52.71,3.75-6.65,8.17-14.2,14.75-18.02Z"/>
      <path class="cls-30" d="M300.51,357.84c-2.9-3-2.72-4.1-1.62-8.36,1.21-1.02,11.47,2.27,13.42-.34-8.25-3.98-13.28,1.07-20.2-6.76-12.6-14.27-15.36-35.32-6.98-52.44,6.12-12.48,12.47-26.63,16.77-39.96.89-2.75,2.75-12.44,3.65-13.78.29-.42.6-.74,1.18-.59,2.37.63,9.82,8.88,12.62,11,14.93,11.33,41.99,12.19,57.73,2.15,9.01-5.75,7.78-8.09,19.7-9.51,4.06-.48,6.07-2.86,8.21,2.31.79,1.74,1.67,3.22,2.81,4.39-.77.27-.95.86-.56,1.78,2.32,3.56,4.4,8.61,4.49,12.92,1.66.39,1.85.95.56,1.68,1.68.98,2.09,4.62,2.25,6.74,1.2,0,2.08.96,2.63,2.88,1.39,1.44,1.82,2.73,1.3,3.86,5.49,7.42,13.94,11.21,17.71,19.64,5.89,13.17-.46,42.26-13.83,49.68-5.25,2.91-6.72,1.67-12.01,1.42-1.27-.06-5.38.37-2.73,1.61.41.19,4.16,1.22,4.39,1.22h8.71c.83,2.64-3.5,6.92-5.64,5.37-.76-.55-.63-3.79-2.78-2.25.98,3.62-2.94,3.64-5.23,2.38-1.65-.91-.31-2.66-1.8-3.82-2.45.14-.19,2.84-1.75,3.28-3.66,1.03-4.74-.65-4.1-4.1,2.04-11.05,9.67-21.89,9.86-34.39.04-2.71-.49-5.31-3.05-2.61-.93,5.72-2.26,11.35-3.89,16.89s-5.96,14.25-6.75,19.64c-.77,5.25,3.27,13.92-4.63,14.75.43-1.24-.59-7.72-2.52-7.3-1.14.25-.63,1.57-.59,2.24.19,3.52,1.91,8.64-2.86,8.94s-2.99-2.79-3.64-5.78c-.61-2.81-1.47-6.6-4.43-7.64-.5.65,4.4,11.35,1.72,13.23-1.4.98-10.98-1.58-12.6-2.63-1.03-.67-2.72-3-3.12-4.18-2-5.96-1.49-13.53-1.84-19.62-.25-4.33-1.2-9.84-1-14.04.22-4.66,2.5-9.66,3.36-14.33l1.12-4.49c.19-1.46,1.36-7.76.55-8.42l-.83.56c-1.73,8.5-6.5,18.7-7.04,27.22-.24,3.81,1.38,11.14.49,13.97-.52,1.65-2.72.78-2.72.09v-12.92c0-4.92-5.38-18.35-7.76-23.13-.65-1.32-2.87-5.69-3.74-6.37s-1.84-.58-1.98.31c-.23,1.49,6.44,13.86,7.33,16.81,2.96,9.84,2.91,29.41,2.25,39.93-.14,2.22-1.09,9.68-2.67,10.96-1.03.83-7.5,2.54-8.78,2.24-1.63-.38-.5-10.67-3.18-11.82-1.78,2.36.73,10.4-.09,11.71-.78,1.24-6.76.25-8.01-.54-3.48-2.2.59-10.82-.34-11.74-1.67-1.64-3.07,3.89-3.24,4.93-.28,1.67.75,3-.42,4.05-6.79-1.9-4.1-8.55-4.9-13.62-.97-6.18-6.47-15.9-8.26-22.63-2.26-8.51-1.43-18.27-4.38-26.54-.32-.9.3-1.5-1.26-1.23-.59,5.05.66,9.93,1.11,14.89.33,3.58-.02,7.43.7,11.09,1.71,8.68,7.1,18.22,8.88,27.11.02,3.31-1.86,4.73-5.09,4.19-.22-.22.7-4.82-1.68-2.25-.31,3.69-2.01,3.26-4.21.94-1.4.63-3.91.39-4.78-.94Z"/>
      <path class="cls-32" d="M262.32,190.47c.57-2.74-3.01-8.02-3.4-10.92-3.33-24.8,11.05-45.63,27.54-62.39,7.44-7.56,13.51-13.24,20.81-21.31,15.42-17.06,37.84-27.6,61.42-24.93,1.76.2,3.75.16,3.16,2.18,1.2.06,1.53-.96,2.81-1.12-19.92,19.86-25.58,49.19-35.87,74.52l1.61,1.3c-.8,1.49-3.31.56-3.78-.99-6.36-.15-12.72-.02-19.09.38,4.15-.73,7.72-.18,10.71,1.65,1.7-1.76,7.21-2.42,8.24.09l-38.88,9.7c-12.38,4.38-27.51,24.08-30.95,36.45-.44,1.57-.51,2.87.19,4.39l-4.49-8.99Z"/>
      <path class="cls-30" d="M428.57,110.15c2.22,3.22,3.46,5.43,6.18,8.42,1.41,1.62,2.72,3.31,3.93,5.05.17.21.41.37.56.56,2.04,1.98,3.91,4.23,5.62,6.74.18.2.38.37.56.56,2.59,1.14,5.45,3.39,6.18,6.18,2.74,2.04,6.31,3.65,8.99,5.62,13,9.52,33.29,25.37,32.03,43.55-.49,7.04-5.38,13.86-11.6,17.04-8.74,4.47-13.08,4.29-21.55-.49-1.6-.69-3.1-1.62-4.49-2.81-.09,1.25-.76,1.22-1.12,0-1.51.08-4.34-1.84-4.49-3.37-3.11-.96-6.08-5-8.01-7.81-2.18-3.17-5.33-8.19-4.91-11.85-.19-1.44-.84-2.75-1.68-3.93-.37-.18-.73-.38-1.03-.63-3.78-3.12-7.85-32.46-8.69-39.04-.5-3.95-1.5-20.39-.41-23.36,1.25-3.42,1.7-2.97,3.96-.44Z"/>
      <path class="cls-12" d="M376.89,242.7c.27,1.08-.4,1.08-.94,1.58-11.97,11.04-48.09,9.99-58.31-3.26-.43-.56-1.09-.71-.84-1.69,13.62,2.26,27.34,4.21,41.18,4.28,6.24.03,12.72-.39,18.91-.91Z"/>
      <path class="cls-40" d="M442.05,305.04c1.21-3.9-2.94-9.22-2.02-12.41.33-1.14,2.82-2.63,3.6-3.68,1.3-1.74,6.48-11.28,8.23-10.88,3,.69.52,13.12-.23,15.48-.62,1.93-7.1,13.91-9.57,11.49Z"/>
      <path class="cls-1" d="M467.19,137.36c-.32-3.66-2.06-8.06-3.45-11.7-4.3-10.42-8.7-24.78-14.78-34.18-2.49-3.81-6.66-6.64-7.42-11.31-.71-2.8-3.41-3.97-5.29-5.72-3.77-3.87-7.57-8.27-10.37-12.56-.76-.88-2.5-.74-3.12.05-.64.73.62,1.83,1.23,2.43,13.14,12.33,23.37,28.64,30.96,45.21,1.27,4.47,10.55,27.4,6.59,29.48-5.99-2.6-10.66-8.76-15.47-13.23-1.82-1.48-2.36-2.14-3.88-4.08-5.78-6.97-13.61-16.38-19-23.42-2.33-3.39-4.61-7.07-6.31-10.7-1.14-3.48-2.56-6.4-5.6-8.92-9.6-8.82-23.44-9.2-35.67-11.53-15.11-3.2-31.49-.53-45.78,5.7-5.09,2.75-10.09,5.9-15.6,7.69-4.23,1.45-9.01,1.25-13.16,3.14-2.87.76-4.7,2.22-7.44,2.79-4.35.25-8.16,3.1-11.8,5.2-27.35,13.92-59.96,31.98-67.8,63.48-.93,4.49-.74,8.77.54,12.92.1.49.45,1.79-.2,1.82-8.98-7.05-5.98-10.44-6.65-20.26-2.44-18.11-9.2-72.15-32.25-72.69-8.28,2.93-17.76,14.85-23.59,21.34-1.82,2.58-3.5,4.41-5.59,6.69-2.82,4.7-4.84,9.94-7.26,14.91-1.26,2.68-1.01,6.64-3.73,8.45-1.19.89-2.83,1.17-4.33,1.37-7.22.88-14.66,2.77-21.02,6.35-6.49,3.19-12.76,7.37-17.71,12.41-1.17,1.23-2.69,2.02-4.39,2.07-6.72.18-13.58.25-20.49.4-8.45,1.64-33.12,1.48-35.99,10.08-3.24,15.78,25.27,49.38,35,62.62,2.93,3.85,7.38,6.04,9.76,10.15,2.21,5.04,5.59,10.91,5.32,16.43.31,6.28-7.92,9.73-11.54,14.2-.98,1.01-2.14,2.41-1.92,3.64.14,1.24,1.44,1.81,2.77,1.13,3.46-2.25,7.15-5.37,8.97-8.78,3.25-2.87,7.64-5.72,8,.84,0,1.06-.5,2.06-1.05,2.96-3.04,4.62-5.71,9.39-8.2,14.25-1.08,1.74-4,7.14.27,5.75,3.77-2.25,5.47-6.95,7.9-10.47,1.14-1.9,1.11-4.3,2.5-6.08,1.15-1.35,2.28-2.49,3.48-2.45,2,.16,3.42,2.65,2.6,4.6-2.21,4.56-4.29,9.72-4.65,14.89-.28,1.58-1.13,6.32,1.59,3.59,9.45-28.4,2.02-12.57,28.28-12.85,3.22-.58,3.15,2.14,2.75,4.63-1.77,10.75-4.73,21.63-7.71,32.21-1.07,6.73-3.55,13.33-6.46,19.49-2.53,2.76-6.18,4.35-9.11,6.65-1.06.73-2.03,1.5-3.21,1.99-1.29.58-2.93.34-3.94,1.45-5.73,9.33,10.33-.59,12.61-2.06,3.22-2.56,2.31,1.58,2.51,3.53.35,2.42.52,3.19-.19,5.15-.63,1.81-.19,4.23-.62,5.82-.27.94-1.11,1.56-2.01,1.94-6.12,2.46-12.59,4.19-19.11,5.13-55.86,11.53-113.05-67.48-63.84-108.5,1.66-1.11,7.96-6.86,2.46-5.93-4.61.55-3.46-5.42-4.05-8.52-1.63-8.55-2.29-16.75-1.86-25.54.99-12.69,1.39-26.94,7.65-38.48,3.34-16.56,12.25-31.36,20.82-46.22,1.35-2.69,3.19-4.77,5.16-7.02,10.84-15.38,23.23-30.23,37.73-41.86.74-1.82-1.79-2.4-3.28-3.76-1-.73-1.8-1.82-3.01-2.12C31.78,114.44-3.2,185.85,13.06,252.77c.53,1.83.38,3.55-.85,5.1-17.04,20.01-15.28,49.1-.67,70.25,20.06,31.35,56.47,45.58,91.25,33.03,4.92-2.06,5.94-1.39,8.62,2.78,3.47,4.7,6.91,10.41,12.39,12.35,1.79.48,3.64.9,5.33,1.7,7.39,4.18,9.06,2.78,16.48.37,5.24,1.53,2.1,4.46,9.79,2.26,2.75-.38,6.2-.1,8.36-2.16,1.01-.89,1.72-2.32,3.16-2.5,2.87-.34,6.58,1.49,8.67,3.59,5.43,2.87,11.73.8,17.19-1.24,2.81-.85,1.86-4.91,2.87-7.17.99-3.16,4.05-6.99,7.26-7.68,1.44-.17,3.02-.02,4.3-.8,2.16-1.61,3.72-3.33,2.03-.1-4.96,7.26-2.99,11.76,5.9,8.83,1.1-.4,3.89-.07,4.07-1.45-1.86-1.88-8.22.49-10.05-.71-1.47-1.99,3.93-8.8,5.29-10.69,1.61-1.84,1.1-4.16,1.75-6.62,2.27-5.63,2.64-11.9,1.81-17.91-.77-7.32-2.66-15.36-6.55-21.77-.69-1.17-1.27-2.38-1.57-3.71-1.68-8.25-1.13-16.79-1.99-25.13-1.63-11.49-4.27-23.24-3.92-34.76,4.58-6.02,11.47-10.27,15.9-16.62,8.08-10.11,11.12-20.13,9.4-33.48-.19-1.39-.48-3.1,1.17-3.48,1.92-.97,16.92-3.01,12.8-6.51-5.36-2.91-14.99,6.94-17.65-.93-.33-1.62,1.26-.86,2.52-.61,8.54,1.38,17.05-2.49,24.95-6.05,3.67-1.65,2.98,6.58,4.95,8.47,1.73,2.55,6.35.85,4.68-2.43-14.96-40.95,31.96-76.92,58.39-102.06,14.34-10.37,33.89-16.75,51.1-12.02,1-.07,2.16-.59,3.22-.42,23.96,3.78,33.06,5.57,45.26,28.47,1.63,3.46,5.16,6.13,7.56,9.14,1.27,2.84,2.57,6.07,5.4,7.77,3.52,2.48,5.67,6.52,8.81,9.49,1.94,3.32,4.95,4.79,7.5,7.34,1.92,2.59,3.01,5.62,6.14,6.98,4.29,2.71,10.76,1.29,11.13-4.14v-.17ZM205.15,342.61c1.79-7.42,2.56-15.22,3.74-22.88.19-1.71.62-1.95,1.27-.16,2.64,6.91,2.99,14.43,3.01,21.77.03,1.47.52,2.72.76,4.19.53,2.58-.86,4.34-1.66,6.54-.51,1.48.31,3.1-.96,4.2-.44.44-1.07.99-1.5,1.54-1.97,2.48-4.94,4.58-7.81,3.64-.89-.53-.83-2.3-1.72-2.72-.13-.11-.06-.18.17-.38.53-.43,1.5-1.65,1.81-2.55.98-2.99,1.95-6.1,2.57-9.19.11-1.34-.13-2.53.25-3.82l.05-.17ZM197.67,354.44c-2,5.67-3.82,11.51-4.61,17.28-.1.75-.31,1.54-.72,2.12-3.25,3.78-9.2,5.04-14.06,4.26-3.83-.83-1.29-5.42-1.21-7.97.13-9.21,5.01-48.47-3.17-51.99-2.5-.19-.53,6.64-.48,8.24.08,1.97,1.01,3.24,1.47,4.95.24,1.22.17,2.57-.13,3.8-.47,1.69-1.27,3.34-1.39,5.14-.66,7.94-1.19,15.98-1.7,23.79-.07.91-.15,1.91-.88,2.5-1.14.86-4.18,1.2-5.35.39-4.11-6.97-9.23-32.43-10.8-41.31-.4-1.55-1.16-2.72-1.37-4.22-.12-.54-.18-.82-.31-1.15-.19-.57-.8-1.13-1.33-.7-.99,1.03-.43,3.09-.47,4.45.36,13.04,3.45,26.37,7.64,38.7.76,2.46,2.14,5.03,3.44,7.19.04.1-.05-.01-.32-.28-.34-.37-.89-.8-1.35-1.08-1.42-.87-3.15-.11-2.66,1.34.69,1.52,1.74,2.84,1.9,4.61.17.93.07,1.73-.71,2.26-1.74,1-4.53,1.66-6.18,1.26-1.75-.55-2.85-2.58-4.43-3.69-7.49-6.18-12.39-15.05-16.45-23.97-.85-2.05-2.58-3.31-3.2-5.3-1.33-5.01-4.01-11.38-4.57-16.55-.09-.69-.45-2.14-1.07-2.06-1.5.89-.51,4-.17,5.48.44,1.4.07,2.67.12,4.05.38,4.24,3.15,13.63,5.44,18.96.53,1.43,1.88,2.5,2.54,4.05,1.3,3.36,3.58,6.23,5.62,9.23,1.47,1.91-.86,2.33-2.21,2.92-1.5.63-2.05,2.07-3.28,2.22-.57.08-1.13-.05-1.69-.23-3.49-1.23-6.64-2.95-9.4-5.04-1.44-1.1-3.21-1.64-4.36-3.06-1.22-1.57-1.89-3.54-2.4-5.46-.51-1.5-1.48-2.58-1.78-4.12-2.96-26.66,13.56-49.3,14.83-75.63.3-1.82.46-3.63,1.91-4.68.77-.45,1.3.07,2.53.14,3.38.29,9.35.44,13.33.4,2.42-.02,3.28-.08,5.24-.59,16.12-4.42,31.81-12.96,45.44-22.33.61-.44,1.59-1,2.14-.56.36.24.62.79.83,1.47,9.26,32.14,6.69,67.77-.13,100.58l-.05.18ZM132.95,272.62c.72-.26,2.21-.22,3.02-.23-.85.11-2.13.19-3.01.24v-.02ZM211.28,234.7c-17.82,15.56-37.95,27.86-61.04,33.64-2.16.35-4.06,1.69-6.14,2.15-10.25,1.28-21.02,2.23-31.08-.3-3.08-.73-6.11-1.73-8.99-3.02-.61-.28-1.25-.55-1.62-1.1-.75-1.19.51-3.37.86-4.99.96-2.59-.17-4.84-2.68-3.24-1.35.85-1.55,3.73-3.22,4.26-1.42.44-3.38-.67-3-2.32.46-3.27,4.47-7.15,5.97-10.05.92-1.84-.56-1.94-1.95-.19-1.25,1.54-2.28,3.39-3.39,5.15-1.1,1.95-2.53,3.46-3.93,1.27-.78-1.19-1.9-3.03-.43-4.05,1.54-1.27,5.1-4.11,7.21-5.82,1.27-.88,1.75-1.68,2.33-2.8.31-.73,1.35-1.7,1.02-2.5-.18-.35-1.3-.26-1.58-.2-1.04.18-2.03.58-2.95,1.11-2.67,1.78-5.39,4.01-8.06,5.66-.48.28-1.03.49-1.52.33-.56-.18-1.01-.92-1.27-1.53-2.78-6.13-4.94-12.55-7.53-18.71-1.13-1.82-3.83-1.77-5.34-3.46-11.83-14.84-22.68-31.24-33.39-47.33-1.03-1.56-1.97-2.93-2.59-4.76-1-2.83-1.71-7.06-.79-9.46.44-1.19,1.14-1.77,2.32-2.25,1.76-.71,5.06-1.69,7.32-2.29,12.32-2.5,25.28-2.4,37.93-2.29.73.03,1.41.15,2,.56.95.6,1.49,2.09,2.57,2.33,1.48.29,2.51-1.27,3.3-2.38,4.86-7.14,12.56-11.92,20.36-15.55,1.19-.57,1.95-1.46,2.92-1.87,1.14-.57,3-.54,4.37-1.11,6.84-2.42,14.07-3.43,21.3-4.17,1.02-.18,1.96-.49,2.49-1.3.97-1.57-1.43-2.83-1.34-4.39,1.55-6.7,4.98-12.95,8.34-19.27.91-2.15,1.9-3.96,3.71-5.45,4.71-5.43,9.72-10.68,14.8-15.81,2.51-2.41,5.55-5.59,9.04-6.12,5.97.48,9.82,8.82,12.44,13.74,8.74,19,12.07,40.67,13.93,61.5-.12,1.05-1.18.31-1.79.13-1.61-.73-2.44.5-2.06,1.88.16.57.46.98.88,1.48,2.18,2.6,9.16,10.89,10.94,13.03.6.97,2.12,1.91,1.74,3.17-4.19,5.27-10.25,9.11-14.82,14.12-2.38,2.52-5.16,5.75-7.13,8.48-.39.6-1.01,1.51-.84,2.15.12.44.5.48,1,.07,6.44-7.4,13.53-14.36,20.82-20.97.89-.91,2.18-1.19,3.22-.41,3.84,2.27,3.77,4.76.22,7.28-4.22,3.25-10.75,6.29-15.12,9.82-1.04.99-2.32,1.96-3.06,3.2-.78,1.78,1.58.49,2.16-.12,3.13-2.56,6.44-4.74,9.81-6.92,2.64-1.69,6.36-4.03,8.33-4.96.95-.51,2.11-.46,2.83.43,1.01,1.14,2.29,4.79.24,5.33-4.96,1.2-9.67,3.66-14.27,5.9-1.45.78-2.66,1.98-3.62,3.26-.26.38-.37.65-.29.8.06.31,1.32.35,1.55.31,1.31-.07,2.53-.27,3.78-.84,4.59-1.77,9.26-3.75,14.05-4.63,1.07.01,1.53.81,1.74,1.83,2.18,12.44-3.42,26.13-12.84,34.45l-.14.13Z"/>
      <path class="cls-36" d="M300.51,357.84l3.93,1.12c.1-1.03-.46-6.17.84-6.17,1.55,0,.33,5.67,1.09,6.76.43.63,2.38.71,2.55.53.12-.13-.32-1.29.57-2.25l-.32,2.82c-3.53.6-2.78-.94-3.68-1.62-.18-.13-2.32.98-4.32.11-.99-.43-.57-1.2-.67-1.31Z"/>
      <path class="cls-31" d="M363.42,313.47c.26-1.41-.26-3.32,1.12-4.49-.2,1.5.2,3.32-1.12,4.49Z"/>
      <path class="cls-16" d="M174.14,32.09v3.36c-2.36.1-2.36-3.47,0-3.36Z"/>
      <path class="cls-16" d="M216.27,56.23c-1.06,1.14-2.8-2.98-.85-2.24.72.27,1.19,1.87.85,2.24Z"/>
      <path class="cls-27" d="M308.94,86.57c.8.79-4.47,7.42-5.33,8.43-13.46,15.76-32.2,27.39-41.01,46.61-5.04,10.99-5.25,17.76-7.15,29.35-.74,4.49-3.41,3.77-6.73,5.63-4.75,2.66-6.27,3.91-12,4.85-.86.14-5.61.79-5.85.61-1.64-1.26,4.97-2.04,3.36-3.93-3.55-.39-6.63,3.98-9.58.87-.33-.34-2.78-4.82-2.8-5.11-.18-1.82,2.27-2.99,2.28-4.75-1.29-.12-1.62,1.28-3.05,1.15-3.64-.34-4.79-10.95-4.24-13.78.05-.26,1.62-3.94,1.95-4.79,6.41-16.54,22.58-33.34,37.94-41.26,1.85-.95,2.85.97,1.67-2.53,3.55,1.63,3.42-.55,5.33-1.7,10.57-6.34,24.85-13.78,36.11-18.37,2.66-1.08,6.26-.6,9.11-1.27Z"/>
      <path class="cls-2" d="M173.02,320.21c1.49,2.25,1.56,6.9,1.68,9.55.54,2.02.49,4.16,0,6.18-.05,7.51-1.06,13.75-1.68,21.07-.18,2.12.73,10.15-1.48,10.87-.4.13-6.12.56-6.39.39-1.11-.69-5.29-13.84-5.9-16.04-2.09-7.59-4.66-18.57-5.76-26.27-.15-1.02-.16-1.92-.13-2.94.05-1.9-.24-2.13,1.09-3.69,3.02-3.53,9.98-5.66,14.23-3.49.27.14,4.17,4.11,4.34,4.37Z"/>
      <path class="cls-1" d="M459.89,206.02c-.31-1.65-1.64-1.18-1.55-2.63-.14-.69-.91-1.35-1.12-.56-1.43-.03-2.62-1.16-3.37-2.25-.09-1.07-3.37-3.26-4.49-3.37-6.14-5.59-9.59-12.18-12.92-19.66-.18-1.44-.85-2.76-1.68-3.93-4.76-12.56-8.22-31.22-8.98-44.66-.25-4.49-.65-14.44,0-18.53.34-2.15,1.65-1.32,2.8-.28-2.48-3.6-4.01-5.41-6.74-8.7-2.39-2.88-3.98-5.87-6.17-9.27,1.97,5.77,5.7,10.87,6.2,17.11.5,6.31-.35,13.26-.01,19.67.55,10.57,3.29,28.53,6.33,38.6,3.26,10.81,7.36,13.09,7.7,26.27l-.56,7.3c-.22,1.22-.76,4.04-1.12,5.05-2.61,7.31-16.5,21.78-23.59,25.27l1.1.82-6.11,3.47,1.64,9.19-2.24-3.37c.68,1.65,1.59,4.35,2.25,6.18.34-.36.63-.5.88-.14.72,1.04,3.65,10.62,4.23,12.64.02.07-.25.23-.61.42.19.51.33,1.06.56,1.68,1.44.79,2.08,4.06,2.25,6.74,1.42,3.27,1.85,3.93,3.93,6.74-.17-2.61,1.9.43,3.56.04.49-.12.51-1.11.95-1.4.93-.61,2.29-.32,3.34-1.18.88-.72,2.8-4.73,3.96-6.15,2.15-2.66,8.08-7.57,8.82-10.27.45-1.62.52-6.76.83-7.32.3-.54,3.19-1.2,3.86-2.03.2-.25,2.39-4.59,2.89-5.54,4.84-9.21,8.44-17.18,11.36-27.39.93-3.24,2.58-4.68,1.87-8.57Z"/>
      <path class="cls-19" d="M213.46,349.41c-.98-.97-1.43-2.47-1.35-4.5h-6.84s-.8-1.12-.8-1.12c1.88-9.59,1.85-19.78,4.21-29.2,5.7,9.55,5.46,20.97,5.35,31.74,0,.95.36,2.5-.57,3.08Z"/>
      <path class="cls-4" d="M204.48,343.79h8.99c-.09,1.85.12,3.76,0,5.62-.11,1.56-.51,4.89-1.12,6.18-.11.23-2.66,3.45-3.08,3.94-3.17,3.64-4.59,2.89-9.27,2.8l.56-4.49c1.44-4.04,3.11-9.87,3.93-14.04Z"/>
      <path class="cls-24" d="M192.68,374.12c-.26.62-1.15,2.24-1.69,2.53-.49.26-7.01,2.4-7.61,2.49-1.62.24-6.5.42-6.99-1.65-.16-.68-.12-3.49.08-4.13.59-1.83,3.1-.29,4.62-.38,3.74-.23,11.79-7.13,11.58,1.14Z"/>
      <path class="cls-7" d="M415.65,85.44c2.86,4.08,4.76,8.8,7.62,12.88,5.78,8.24,14.08,16.28,20.37,24.57.56.73,1.1,1.48,1.22,2.43-3.3-2.93-6.59-7.47-9.55-10.95-6.8-8.03-13.72-15.81-18.37-25.42-.45-.92-2.1-1.02-1.29-3.5Z"/>
      <path class="cls-1" d="M451.59,137.67c-2.57-1.91-4.25-4.15-6.18-6.18,2.68-.36,7.66,3.29,6.18,6.18Z"/>
      <path class="cls-1" d="M438.68,123.63c-1.17-1.47-3.55-3.05-3.93-5.05,1.33,1.46,3.61,2.61,3.93,5.05Z"/>
      <path class="cls-1" d="M444.85,130.93c-2.04-2.21-3.63-4.23-5.62-6.74,3.43.62,1.97,1.59,2.54,2.78.53,1.13,2.83,2.23,3.08,3.96Z"/>
      <path class="cls-1" d="M174.71,335.93c.01-2.04.1-4.14,0-6.18.93,1.31.96,4.75,0,6.18Z"/>
      <path class="cls-25" d="M59.01,235.96c3.16-2.03,8.29,1.66,10.32,4.43,6.72,9.2-5.13,23.53-12.3,29.01-7.63,5.03-14.02,10.97-19.16,17.84-.46-.05-.83-.06-.94.11-2.79,4.37-2.23,16.29-1.51,21.62l1.23.96c4.04,21.09,30.78,45.19,52.76,35.2l1.61.35c6.65-2.05,12.41-6.08,17.97-10.11v10.11c-.35,3.36-.79,6.61-.65,10.02-17.18,8.33-38.75,10-56.77,3.32-3.93-1.46-7.5-3.34-11.09-5.47.31-.95.33-1.19.04-.73-10.79-14.05-23.99-31.36-29.36-48.36-10.56-33.43,9.98-42.65,36.25-53.98,2.83-1.45,13.36-7.49,14.18-10.02.45-1.41-1.05-2.5-2.22-2.85l-.35-1.44Z"/>
      <path class="cls-37" d="M59.01,235.96c2.29,1.25,3.8,1.28,3.67,4.47-.11,2.57-11.68,9.2-14.21,10.55-14.01,7.47-34.76,12.41-38.17,30.35-4.65,24.44,16.07,50.34,29.83,68.72.19.26,2.69,3.89.35,3.3-37.26-22.15-56.33-77.36-14.04-105.03.35-1.57,1.65-2.82,3.9-3.74,5.31-3.34,21.95-11.56,27.85-9.83l.83,1.21Z"/>
      <path class="cls-41" d="M159.54,371.31c.85,1.53,2.94,3.36,1.42,5.64-.2.3-5.15,2.05-5.78,2.12-1.41.15-1.5-.33-2.38-1.02-.55-.43-1.01-1.69-2.24-1.96.96-.35,1.54-2.88,1.76-3.01.37-.22,1.96-.13,3.29-.65,1.15-.45,2.44-2.14,3.93-1.12Z"/>
      <path class="cls-8" d="M96.08,268.54c-.16-.6-2.65-3.35-3.37-3.93,3.31-.03,2.77,2,3.37,3.93Z"/>
      <path class="cls-10" d="M329.02,177.13c2.28,2.32-1.87,9.54,3.8,14.45,6.25,5.42,13.93,6.87,21.22,2.71,1.58-.9,10.08-8.39,8.81-2.46-.54,2.52-10.65,8.17-13.32,8.61-2.35.39-6.36-.43-8.18.66-.58.35-3.79,5.77-4.9,7.04-3.62,4.15-13,12.16-17.69,5.92-2.41-3.21-1.03-5.65-1.4-9.27-.3-2.97-.66-12.07-3.66-12.63-4.97-.93-6.5.77-11.45-3.15-1.83-1.45-5.56-6.75-5.11-8.93.74-3.59,3.95,3.8,4.24,4.19,5.13,7.18,15.82,5.37,20.71-1.16,1.34-1.79,3.9-9.07,6.93-5.99Z"/>
      <path class="cls-48" d="M340.19,168.93c-1.94,2.23-7.17,6.33-10.2,6.29-4.85-.07-9.54-7.19-10.24-11.56-.36-2.24-.73-4.5,1.95-5.08,3.33-.72,15.57.35,18.53,2,3.89,2.17,2.32,5.64-.04,8.34Z"/>
      <path class="cls-45" d="M365.75,148.98c.34-.54,5.86-1.81,6.94-1.81,6.69,0,13.73,7.2,13.8,13.81.11,9.63-9.28-2.38-11.65-4.12-2.65-1.94-11.6-3.95-9.09-7.88Z"/>
      <path class="cls-38" d="M336.46,148.91c-2.2-.53-4.6-.59-6.91.02-.58.15-.18,1.29-1.22,1.13-1.19-.18-1.52-1.45-2.83-1.71-1.65-.32-6.56-.18-8.44-.03-1.75.14-4.38,1.43-5.57,1.14-1.64-.4.2-2.36,1.22-2.68,2.49-.78,10.89-1.19,13.92-1.29s6.4,1.24,10.03-.05c.68-.24,1.19-2.62,2.04-1.59,1,1.22-3.98,3.1,1.69,3.93,6.94,1.02,12.56,2.54,18.53,6.18,2.16,1.98,1.12,1.94-1.12,1.12-6.32-3.26-14.45-4.53-21.34-6.18Z"/>
      <path class="cls-20" d="M370.72,167.44c.6,1.33.42,1.89-.56,1.68-2.69-5.1-7.17-11.37-12.36-14.04h1.68s-.56-1.12-.56-1.12c6.13,3.74,8.46,7.13,11.79,13.48Z"/>
      <path class="cls-43" d="M435.31,201.14c.29-2.31-.68-5.4.56-7.3.07,2.87-.08,4.61-.56,7.3Z"/>
      <path class="cls-28" d="M370.72,167.44c.26.49,1.88,2.08,1.12,2.81-1.33,1.29-1.62-1-1.68-1.12l.56-1.68Z"/>
      <path class="cls-1" d="M407.23,247.75c.2-1.16-1-1.95.94-1.21,1.33.51.58,1.96,1.12,3.36,1.23,3.16,2.68,6.03,3.53,9.4.21.85.57,2.68-1.09,1.37-1.58-4.27-2.98-8.73-4.49-12.92Z"/>
      <path class="cls-1" d="M412.28,262.36c2.08-.2,1.38-.09,1.76,1.3s1.56,4.22.48,5.44c-1.08-2.5-1.45-4.63-2.25-6.74Z"/>
      <path class="cls-22" d="M305.43,133.33c2.95-.35,7.49.28,9.89,2.18,1.88,1.48,3.97,4.49,1.24,6.13-2.46,1.48-4.82-.25-7.27-.01-3.07.29-8.63,2.51-11.38,2.59-6.28.2-3.77-4.72-.76-7.39,2.19-1.94,5.4-3.15,8.29-3.5Z"/>
      <path class="cls-1" d="M454.96,200.58c.44.8,1.5,1.81,2.25,2.25-.37,1.34-3.73-.96-3.91-1.21-.28-.39.54-.96.54-1.04.36.04.78-.06,1.12,0Z"/>
      <path class="cls-26" d="M449.91,229.78l7.89-21.62c-.13-1.37-5.68-3.93-7.28-5.1-1.68-1.23-3.03-2.79-4.54-4.16,1.88,1.54,12.5,7.34,12.78,8.77.25,1.31-4.03,12.47-4.91,14.55-1.14,2.68-2.62,5.08-3.94,7.57Z"/>
      <path class="cls-26" d="M443.17,243.26c1.23-4.46,4.02-8.8,6.18-12.92-.48,4.7-3.82,9.01-6.18,12.92Z"/>
      <path class="cls-18" d="M175.13,91.72c2.43-.62,6.72,5.49,8.01,7.47,2.92,4.46,5.45,10.47,6.87,15.59,2.79,10.04,4.12,21.25,3.22,31.6-.03.66-.26,1.1-.92,1.33-3.25,1.08-18.12-5.77-22.38-7.24-5.45-1.87-11.32-2.99-16.56-4.78-8.02-2.73-3.66-5.35-1.6-9.99,1.79-4.03,3.16-8.27,5.22-12.19,2.68-5.1,12.73-20.41,18.13-21.79Z"/>
      <path class="cls-35" d="M58.45,195.52c-4-4.71-8.62-11.45-11.15-17.21-.91-2.08-4.36-10.45-3.21-12.04.22-.3,6.12-2.24,7.06-2.49,8.2-2.22,20.32-2.16,28.34.88,5.32,2.01,2.45,4.3,1.7,8.37-2.47,13.36-4.78,28.06-3.63,41.58-3.69.6-2.22-2.35-3.93-4.78-2.29-3.26-10.55-9.25-14.04-13.2-.39-.44-.87-.82-1.12-1.12Z"/>
      <path class="cls-46" d="M112.23,202.41c5.43-.79,11.09.84,15.69,3.68,1.52.94,7.44,4.92,4.09,6.6-1.09.54-7.31-4.08-9.17-4.9-7.8-3.43-16.21-1.86-19.17,6.85-1.94,5.7.8,8.27.29,12.04-.61,4.49-4.1-1.28-4.47-3.96-1.18-8.47,3.55-18.96,12.73-20.3Z"/>
      <path class="cls-46" d="M164.6,194.4c-2.23,1.08-3.85-3.24-4.32-4.95-4.74-17.29,7.68-27.11,23.8-20.43,1.82.75,6.72,3.48,6.94,5.46.48,4.29-5.25-.77-6.93-1.53-8.39-3.8-20.11-3.65-21.16,7.69-.47,5.05,1.92,8.82,1.67,13.76Z"/>
      <path class="cls-6" d="M159.97,213.63c1.87,1.83-.94,3.75-.82,5.68.19,3.01,3.36,5.64,6.21,3.78,1.35-.88.73-5.22,3.17-5.1,2.28,7.08-2.78,6.43-5.91,8.96-1.36,1.1-1.46,3.69-3.1,4.76-2.32,1.52-9.69,1.49-10.55-1.75-1-3.77,3.53-.45,4.25-.29,4.08.92,6.42-1.27,4.78-5.37-1.15-2.87-3.18-1.98-5.22-2.65-6.22-2.02,3.05-12.08,7.19-8.03Z"/>
      <path class="cls-17" d="M183.13,366.26c1.89.04,3.5-.54,5.17-.44,1.03.06,4.47.84,2.44,2.15-1.8,1.16-8.72.48-10.64-.64-1.27-.74-.92-1.11.22-1.63,1.06.57,1.66.53,2.81.56Z"/>
      <path class="cls-15" d="M155.61,372.44c-4.31.4-4.31-2.08,0-1.68v1.68Z"/>
      <path class="cls-14" d="M69.68,259.55c1.23,1.1.44,2.14-1.12,1.68-1.11,1.49-3.45,4.23-4.75,5.64-.94,1.03-2.94,2.68-4.24,3.35,3.15-3.4,7.37-7.91,10.11-11.79-.07.34.1.88,0,1.12Z"/>
      <path class="cls-3" d="M50.59,303.36l6.74,8.42c-2.95-3.27-5.14-5.39-7.86-8.99l1.12.56Z"/>
      <path class="cls-34" d="M42.72,135.99c.11,1.57-.3,5.17-2.25,5.05.85-1.63,1.34-3.42,2.25-5.05Z"/>
      <path class="cls-33" d="M41.6,153.96c.88-.4,1.62-.4,2.25,0-1.2.26-3.3.79-4.49,1.12l1.12-1.12c.37,0,.75,0,1.12,0Z"/>
      <path class="cls-44" d="M57.33,115.21c1.34-2.46,2.03-2.3,3.37-3.93-.29,1.72-2.01,2.94-3.37,3.93Z"/>
      <path class="cls-23" d="M78.11,279.21c-.23.48-1.69,4.51-1.69,4.77l1.69.29c-.38.42-.37,1.17-1.39,1.15-3.01-.06.2-4.78.83-6.2h.56Z"/>
      <path class="cls-42" d="M458.14,207.59c-4.07-2.84-8.13-5.74-12.16-8.7-1.25-1.13-2.73-2.2-3.93-3.37-.27-.26-.77-2.89-2.24-1.69-.54.45-1.34,11.52-2.09,13.92-2.63,8.32-18.43,23.06-26.07,27.29-3.03,1.68-4.29.93-3.06,6.01,1.22,5.03,4.45,11.81,6.22,16.8,1.83,5.17,2.36,11.54,6.82,15.12,1.17.19,4.96-4.79,5.8-5.87,3.8-4.88,6.8-10.29,10.13-15.43,1.83-2.82,3.88-5.55,5.62-8.42,2.3-4.2,4.36-8.51,6.18-12.92.11-.21.46-.37.56-.56,1.38-2.79,8.97-20.8,8.23-22.19Z"/>
      <path class="cls-1" d="M92.71,340.42c-9.84-5.82-19.32-13.56-28.08-20.78-1.77-2.62-4.17-5.27-6.74-7.3.16-.53-.03-.72-.56-.56-2.54-3.09-5.16-6.08-7.86-8.99-1.26-2.75-3.01-5.39-5.27-7.94-3.5-5.11-5.28-7.81.17-12.2l14.65-11.88c.53.16.72-.03.56-.56,3.85-3.35,7.79-7.26,10.11-11.79.52.08,1.23.06,1.36-.34,2.27-6.5,4.09-15.25-1.48-20.61-1.21-1.16-3.44-3.1-4.93-2.65-10.78-4.87-23.35.83-32.87,5.96.03,1.37-7.68,5.1-7.89,4.68-2.35-4.65-3.23-17.43-3.42-23.16-.51-14.8,1.08-29.62,4.71-43.98l-.41-1.35c-4.09,3.24-2.72,8.04-3.4,12.05-2.03,12.08-4.83,24.99-3.36,37.67.44,3.78,1.96,9.18,2.3,12.9.17,1.9-.93,4.03-.5,5.49.13.47,2.34,2.79,2.73,2.95,1.65.7,5.09-3.06,3.92.26,7.72-5.05,23.6-13.81,32.57-12.36,13.63,2.21,13.41,12.88,6.64,22.65-7.03,10.15-17.21,14.87-25.2,23.1-5.93,6.1-5.85,12.71-5.84,20.8,0,1.85.03,4.8.81,6.46,1.86,21.65,34.89,49.61,55.6,36.51.86-.55,2.22-1.98,3.36-2.53l-1.67-2.53ZM77.8,346.07c-18.13-.88-30.15-12.42-37.32-28.11l-1.68-4.49c-.63-2.21-1.53-4.74-1.67-7.03-.05-.82-.51-2.22.82-1.95,8.69,11.69,19.15,22.21,30.66,31.12,1.89,1.46,13.08,8.78,13.43,9.6.57,1.34-3.55.89-4.23.86Z"/>
      <path class="cls-29" d="M331.97,196.08c-4.21-2.69-4.7-6.69-7.02-10.66-.95,1.49-6.44,4.76-6.52,5.88.84,3.76,1.9,7.4,2.3,11.24.24,2.3-.67,7.8.83,9.27,2.66,2.62,8.2-2.46,9.84-4.51,2.11-.88,5.68-5.59,5.66-7.6-.02-2.7-3.52-2.63-5.1-3.64Z"/>
      <path class="cls-9" d="M181.65,101.81c-1.11-2-4.11-7.41-6.54-6.74-2.84.78-11.36,13.02-13.21,16.04-2.55,4.15-5.76,9.8-7.68,14.22-1.06,2.43-3.67,6.78-.42,8.27,5.55.98,11.15,2.05,16.54,3.68,2.79.84,18.9,7.77,20.1,6.58-.62-13.66-2.05-29.94-8.78-42.05Z"/>
      <path class="cls-9" d="M79.14,168.96c-1.02-3.36-14.3-3.69-17.43-3.6-1.7.05-4.64.23-6.27.46-1.89.27-7.87,1.3-8.22,3.02-1.06,5.22,6.82,17.13,10.13,21.33,1.7,2.16,14.4,15.25,15.98,14.9,1.92-.43,1.74-11.38,2.05-13.7.85-6.3,3.37-14.37,3.82-20.37.05-.71.17-1.34-.05-2.05Z"/>
      <path class="cls-13" d="M155.61,367.38c.98,1.78-3.07,2.71-4.49,2.81-4.51-1.61,1.72-2.84,3.19-3.18.54-.13,1.21.4,1.3.37Z"/>
      <path class="cls-47" d="M203.91,202.26c-.72,1.15-.94,1.22.56,1.12-.68.3-1.89,2.49-3.93,1.68-.62-2.13,1.86-2.04,3.37-2.81Z"/>
      <path class="cls-21" d="M131.46,358.4c1.07,3.02,7.14,8.65,7.76,11.07.75,2.91-5.06,1.38-6.07,3.26-.92,1.71,3.23.69,3.36.83s.35,3.29.56,3.93c-3.43.85-3.53-1.44-5.07-2.49-4.74-3.22-10.5-2.28-15.14-8.74-.28-.38-2.49-4.23-2.57-4.48-.73-2.39.62-3.06,2.57-3.95,3.34-1.52,12.06-2.17,14.6.56Z"/>
    </g>
  </g>
</svg>